<svg id="visual" viewBox="0 0 4000 2191" width="4000" height="2191" xmlns="http://www.w3.org/2000/svg" xmlns:xlink="http://www.w3.org/1999/xlink" version="1.1"><rect x="0" y="0" width="4000" height="2191" fill="#ffffff"></rect><path d="M0 16L166.7 17.5C333.3 19 666.7 22 1000 37.8C1333.3 53.7 1666.7 82.3 2000 100.3C2333.3 118.3 2666.7 125.7 3000 112.5C3333.3 99.3 3666.7 65.7 3833.3 48.8L4000 32L4000 0L3833.3 0C3666.7 0 3333.3 0 3000 0C2666.7 0 2333.3 0 2000 0C1666.7 0 1333.3 0 1000 0C666.7 0 333.3 0 166.7 0L0 0Z" fill="#000000" stroke-linecap="round" stroke-linejoin="miter"></path></svg>